<svg width="76" height="76" viewBox="0 0 76 76" fill="none" xmlns="http://www.w3.org/2000/svg">
<circle cx="38" cy="38" r="38" fill="#FDEDED"/>
<path d="M57.7532 44.6506C58.4541 47.0234 56.9435 49.0188 54.5152 48.5873C54.8386 50.9593 52.5184 53.0627 49.7119 51.7143C50.791 54.4638 48.2539 56.0276 46.2579 54.8412C47.2822 56.0817 45.6643 60.2877 39.4045 56.297L38.2049 55.6378L24.0871 47.8732L23.0219 47.2877C23.0219 47.2877 17.8142 43.0371 16.7891 41.2579C13.5826 35.7128 17.482 26.8093 24.4113 25.3273L30.2104 24.2876L34.0354 30.0896L43.5799 34.4731L52.9185 39.7166L55.6089 42.4676L57.7532 44.6506Z" fill="#6A462F"/>
<path d="M57.7529 44.6506C62.6599 41.3031 61.4333 30.7569 57.6807 26.1354C50.9003 25.0702 49.6496 24.411 42.3633 23.2567L32.4852 22.8055C31.7776 22.6198 31.0261 22.7068 30.3798 23.0494C29.7335 23.392 29.2395 23.965 28.996 24.6548C28.4087 26.8059 27.5243 28.8646 26.3684 30.7715C26.1125 31.3976 26.1122 32.0992 26.3677 32.7255C26.6233 33.3518 27.1142 33.8529 27.7352 34.1212C29.1282 34.4687 29.7648 33.8394 30.9914 32.8902C32.0424 31.887 32.9745 30.7663 33.7694 29.5501L43.7279 34.0796L53.0146 39.3099C54.8501 40.5489 56.6739 43.5759 57.7675 44.6542M35.0383 54.7346C35.3554 54.2499 35.8504 53.9092 36.4164 53.7863C36.9825 53.6634 37.5742 53.768 38.0638 54.0775C39.0896 54.6711 39.8445 55.802 39.1429 57.0439L37.8477 59.3079C37.5016 59.7738 36.9976 60.0976 36.43 60.2189C35.8624 60.3401 35.2701 60.2504 34.7638 59.9666C34.2576 59.6828 33.872 59.2243 33.6793 58.6768C33.4866 58.1293 33.5 57.5304 33.7168 56.9921L35.0383 54.7332V54.7346ZM30.8987 52.4202C31.2158 51.9355 31.7108 51.5949 32.2768 51.4719C32.8429 51.349 33.4346 51.4536 33.9242 51.7631C34.95 52.3567 35.7049 53.4876 35.0032 54.7295L33.7081 56.9935C33.3619 57.4591 32.858 57.7826 32.2906 57.9037C31.7233 58.0248 31.1312 57.9352 30.6251 57.6515C30.119 57.3679 29.7335 56.9097 29.5407 56.3625C29.3478 55.8153 29.3608 55.2167 29.5772 54.6784L30.8987 52.4202Z" fill="#C19A65"/>
<path d="M26.7665 50.1132C27.0836 49.6285 27.5786 49.2879 28.1446 49.1649C28.7107 49.042 29.3024 49.1466 29.792 49.4561C30.8177 50.0497 31.5727 51.1806 30.871 52.4225L29.5759 54.6865C29.2297 55.1521 28.7258 55.4756 28.1584 55.5967C27.5911 55.7178 26.999 55.6282 26.4929 55.3445C25.9868 55.0609 25.6013 54.6027 25.4085 54.0555C25.2156 53.5084 25.2286 52.9097 25.445 52.3714L26.7665 50.1125V50.1132Z" fill="#C19A65"/>
<path d="M22.6415 47.7986C22.9585 47.3139 23.4536 46.9733 24.0196 46.8503C24.5857 46.7274 25.1774 46.832 25.667 47.1415C26.6927 47.7351 27.4477 48.866 26.746 50.1079L25.4509 52.3719C25.1047 52.8375 24.6008 53.161 24.0334 53.2821C23.4661 53.4032 22.874 53.3136 22.3679 53.0299C21.8618 52.7463 21.4763 52.2881 21.2835 51.7409C21.0906 51.1938 21.1036 50.5951 21.32 50.0568L22.6415 47.7979V47.7986Z" fill="#C19A65"/>
<path d="M23.0212 47.2876C23.0212 47.2876 17.8134 43.037 16.7884 41.2578C13.5818 35.7127 17.4813 26.8092 24.4106 25.3271M40.2952 46.5867L49.7061 51.7127M36.7615 50.0912L46.2527 54.8353M54.5101 48.5799L50.7866 45.3981L44.7422 42.2332M33.7696 29.5493L43.7281 34.0788L53.0149 39.3092C54.8503 40.5488 56.6741 43.5758 57.7678 44.6542" stroke="black" stroke-width="1.46019" stroke-linecap="round" stroke-linejoin="round"/>
<path d="M39.4042 56.2969C45.6641 60.2876 47.2819 56.0815 46.2576 54.8411C48.2537 56.0275 50.7908 54.4636 49.7117 51.7141C52.5182 53.0626 54.8384 50.9592 54.515 48.5871C56.9433 49.0186 58.4538 47.0233 57.7529 44.6505C62.6599 41.303 61.4333 30.7568 57.6807 26.1353C50.9003 25.0701 49.6496 24.4108 42.3633 23.2566L32.4852 22.8046C31.7776 22.6189 31.0261 22.706 30.3798 23.0486C29.7335 23.3911 29.2395 23.9642 28.996 24.6539C28.4087 26.8051 27.5243 28.8638 26.3684 30.7707C26.1125 31.3968 26.1122 32.0983 26.3677 32.7246C26.6233 33.3509 27.1142 33.852 27.7352 34.1203C29.1282 34.4686 29.7648 33.8385 30.9914 32.8894C32.0424 31.8862 32.9745 30.7654 33.7694 29.5492" stroke="black" stroke-width="1.46019" stroke-linecap="round" stroke-linejoin="round"/>
<path d="M35.0387 54.7345C35.3557 54.2497 35.8507 53.9091 36.4168 53.7861C36.9829 53.6632 37.5746 53.7678 38.0642 54.0774C39.0899 54.6709 39.8449 55.8018 39.1432 57.0437L37.8481 59.3078C37.5019 59.7736 36.9979 60.0975 36.4303 60.2187C35.8628 60.3399 35.2704 60.2503 34.7642 59.9664C34.2579 59.6826 33.8724 59.2241 33.6797 58.6766C33.487 58.1292 33.5003 57.5302 33.7172 56.9919L35.0387 54.733V54.7345ZM30.899 52.4201C31.2161 51.9353 31.7111 51.5947 32.2772 51.4717C32.8432 51.3488 33.4349 51.4534 33.9245 51.763C34.9503 52.3565 35.7052 53.4875 35.0036 54.7293L33.7084 56.9934C33.3622 57.4589 32.8584 57.7824 32.291 57.9035C31.7236 58.0246 31.1316 57.935 30.6255 57.6513C30.1194 57.3677 29.7339 56.9095 29.541 56.3623C29.3482 55.8152 29.3612 55.2165 29.5776 54.6782L30.899 52.4201Z" stroke="black" stroke-width="1.46019" stroke-linecap="round" stroke-linejoin="round"/>
<path d="M26.7665 50.1129C27.0836 49.6282 27.5786 49.2876 28.1446 49.1646C28.7107 49.0417 29.3024 49.1463 29.792 49.4558C30.8177 50.0494 31.5727 51.1803 30.871 52.4222L29.5759 54.6862C29.2297 55.1518 28.7258 55.4753 28.1584 55.5964C27.5911 55.7175 26.999 55.6279 26.4929 55.3442C25.9868 55.0606 25.6013 54.6024 25.4085 54.0552C25.2156 53.5081 25.2286 52.9094 25.445 52.3711L26.7665 50.1122V50.1129Z" stroke="black" stroke-width="1.46019" stroke-linecap="round" stroke-linejoin="round"/>
<path d="M22.6415 47.7986C22.9585 47.3139 23.4536 46.9733 24.0196 46.8503C24.5857 46.7274 25.1774 46.832 25.667 47.1415C26.6927 47.7351 27.4477 48.866 26.746 50.1079L25.4509 52.3719C25.1047 52.8375 24.6008 53.161 24.0334 53.2821C23.4661 53.4032 22.874 53.3136 22.3679 53.0299C21.8618 52.7463 21.4763 52.2881 21.2835 51.7409C21.0906 51.1938 21.1036 50.5951 21.32 50.0568L22.6415 47.7979V47.7986Z" stroke="black" stroke-width="1.46019" stroke-linecap="round" stroke-linejoin="round"/>
</svg>
