<svg width="40" height="40" viewBox="0 0 40 40" fill="none" xmlns="http://www.w3.org/2000/svg">
<rect width="40" height="40" rx="7" fill="#F1F1F1"/>
<path d="M27.3131 14.9371C27.7641 14.6865 27.5862 14 27.0703 14H12.9294C12.4135 14 12.2356 14.6865 12.6866 14.9371L19.7572 18.8651C19.9082 18.949 20.0918 18.949 20.2428 18.8651L27.3131 14.9371Z" fill="black"/>
<path d="M12.7496 16.4318C12.4163 16.2398 12 16.4804 12 16.8651V24.0001C12 25.1046 12.8954 26.0001 14 26.0001H26C27.1046 26.0001 28 25.1046 28 24.0001V16.7389C28 16.3517 27.5789 16.1114 27.2456 16.3084L20.9998 20C20.4002 20.433 19.5932 20.4424 18.9838 20.0234L12.7496 16.4318Z" fill="black"/>
</svg>
