<svg width="77" height="76" viewBox="0 0 77 76" fill="none" xmlns="http://www.w3.org/2000/svg">
<circle cx="38.5" cy="38" r="38" fill="#E9F5FE"/>
<path d="M43.214 48.0503C43.1894 47.7764 43.1714 47.3365 43.1572 46.8803C45.4619 46.8574 48.1693 45.3853 50.1512 44.3028C50.1398 44.3009 50.1408 44.2551 50.1408 44.236C47.0681 41.4428 52.8048 21.5928 42.1251 21.9955C41.4543 21.4229 40.2803 20.9143 38.5964 20.9143C24.1307 22.0184 29.4751 43.7625 27.2308 44.3019C27.2289 44.3028 27.2261 44.3028 27.2242 44.3028C27.2242 44.3047 27.2251 44.3066 27.2251 44.3085C27.2251 44.3095 27.2242 44.3105 27.2242 44.3105C27.2242 44.3105 27.2251 44.3105 27.2261 44.3114C28.9985 46.0993 30.0553 46.1642 34.0167 46.8574C34.0053 47.1342 33.9817 47.4768 33.9296 48.0503C32.7168 51.3397 26.4012 51.5458 22.8999 54.8181C24.8137 56.5033 31.4823 61.0286 38.6361 61.0286C45.79 61.0286 51.731 57.6036 54.0999 54.7227C50.5911 51.543 44.4145 51.3073 43.214 48.0503Z" fill="#0D3C61"/>
<path d="M22.8999 47.6571L31.8142 49.7796L34.7856 62.5143H22.8999V47.6571Z" fill="#FEFEFE"/>
<path d="M74.9 36.2171C74.9 37.0915 74.5477 37.9663 73.843 38.6326L44.9776 65.9698C44.2757 66.6404 43.3512 66.9714 42.4266 66.9714C41.502 66.9714 40.5796 66.6377 39.876 65.9703L25.4434 52.3017C24.7387 51.637 24.3857 50.7613 24.3857 49.8857C24.3857 47.9337 26.0714 46.4686 27.9939 46.4686C28.9171 46.4686 29.8408 46.8023 30.5444 47.4697L42.4266 58.7276L68.7436 33.8038C69.4427 33.1342 70.3673 32.8 71.2919 32.8C73.22 32.8 74.9 34.263 74.9 36.2171Z" fill="#0D3C61"/>
<path d="M25.3053 60.5489C21.5712 58.249 18.48 55.0412 16.32 51.2245C14.1599 47.4078 13.0012 43.1064 12.9519 38.7211C12.9026 34.3358 13.9642 30.0094 16.0379 26.1451C18.1116 22.2807 21.1298 19.0043 24.8113 16.621C28.4928 14.2377 32.7176 12.8252 37.0922 12.5152C41.4668 12.2051 45.8487 13.0075 49.8296 14.8477C53.8104 16.6878 57.2606 19.5058 59.8586 23.039C62.4566 26.5722 64.1179 30.7056 64.6876 35.054L59.9083 35.6802C59.4443 32.1386 58.0912 28.7721 55.9753 25.8945C53.8593 23.0169 51.0493 20.7217 47.807 19.223C44.5648 17.7243 40.996 17.0707 37.433 17.3233C33.8701 17.5758 30.4291 18.7262 27.4307 20.6673C24.4323 22.6084 21.9741 25.2769 20.2852 28.4242C18.5963 31.5716 17.7316 35.0952 17.7718 38.6669C17.8119 42.2385 18.7556 45.7418 20.5149 48.8504C22.2742 51.9589 24.7918 54.5715 27.8331 56.4447L25.3053 60.5489Z" fill="#0D3C61"/>
</svg>
