<svg width="76" height="76" viewBox="0 0 76 76" fill="none" xmlns="http://www.w3.org/2000/svg">
<circle cx="38" cy="38" r="38" fill="#E7F5E0"/>
<path d="M63.5641 22.4369C63.3475 21.9918 63.0175 21.6116 62.6071 21.3347C62.1968 21.0578 61.7208 20.894 61.227 20.8597L58.7877 20.6356L63.0797 16.305C63.3528 16.0251 63.5042 15.6488 63.501 15.2578C63.4978 14.8668 63.3403 14.493 63.0628 14.2176C62.7852 13.9422 62.4101 13.7877 62.0191 13.7877C61.6281 13.7876 61.253 13.942 60.9753 14.2173L56.6602 18.5711L56.4297 16.0625C56.3955 15.569 56.2318 15.0932 55.9552 14.683C55.6786 14.2728 55.2988 13.9427 54.8541 13.726C54.3556 13.496 53.7985 13.4251 53.2583 13.5228C52.7181 13.6206 52.2211 13.8823 51.8348 14.2723L48.6372 17.4707C48.4831 17.6249 48.3647 17.8111 48.2906 18.0161C48.2165 18.2211 48.1884 18.4399 48.2083 18.657L48.7653 24.7144C48.8131 25.2333 48.7466 25.7564 48.5705 26.2468C48.3945 26.7372 48.1131 27.1832 47.7463 27.5532L36.5788 38.8176C36.4411 38.9563 36.3321 39.1208 36.258 39.3016C36.1839 39.4825 36.1462 39.6762 36.147 39.8716C36.1478 40.067 36.1871 40.2604 36.2626 40.4406C36.3382 40.6208 36.4485 40.7844 36.5873 40.922C36.7243 41.0585 36.8872 41.1664 37.0664 41.2392C37.2456 41.312 37.4375 41.3484 37.6309 41.3462C37.8261 41.3469 38.0196 41.309 38.2001 41.2348C38.3807 41.1606 38.5449 41.0514 38.6832 40.9136L49.9154 29.5844C50.2859 29.2107 50.7344 28.9236 51.2289 28.7437C51.7233 28.5637 52.2514 28.4953 52.7754 28.5434L58.6329 29.0818C58.6786 29.0859 58.7242 29.088 58.7688 29.088C58.9638 29.088 59.1569 29.0496 59.3371 28.975C59.5172 28.9003 59.6809 28.7909 59.8187 28.6529L63.0175 25.455C63.4076 25.069 63.6693 24.5722 63.7671 24.0322C63.8649 23.4922 63.794 22.9352 63.5641 22.4369ZM58.2116 26.0607L51.8172 25.4731L51.2289 19.0788L53.5145 16.7928L53.9894 21.9577C54.021 22.3031 54.1726 22.6265 54.4179 22.8718C54.6631 23.1171 54.9865 23.2688 55.3319 23.3005L60.4961 23.7754L58.2116 26.0607Z" fill="#304E21"/>
<path d="M40.5235 31.9536C38.7113 31.2869 36.7255 31.2604 34.8962 31.8783C33.0668 32.4962 31.5038 33.7214 30.467 35.3503C29.4302 36.9793 28.9818 38.9139 29.1965 40.8329C29.4111 42.7518 30.2758 44.5396 31.6469 45.8992C33.0181 47.2588 34.813 48.1084 36.7337 48.3069C38.6545 48.5053 40.5852 48.0407 42.2054 46.9902C43.8255 45.9396 45.0375 44.3664 45.64 42.5319C46.2424 40.6974 46.1991 38.7119 45.5173 36.9054L40.1194 42.35C39.4608 43.008 38.5681 43.378 37.637 43.3788C36.706 43.3796 35.8126 43.0111 35.1529 42.3541C34.4932 41.6972 34.1209 40.8054 34.1178 39.8743C34.1146 38.9433 34.4809 38.049 35.1361 37.3876L40.5235 31.9536Z" fill="#304E21"/>
<path d="M58.4475 31.1045L52.5898 30.5662C52.5428 30.5618 52.4958 30.5597 52.449 30.5597C52.0394 30.5609 51.647 30.7245 51.358 31.0147L50.0912 32.2924C51.9502 35.3456 52.6274 38.9736 51.995 42.4919C51.3627 46.0102 49.4645 49.1753 46.6587 51.3902C43.8529 53.605 40.3335 54.7163 36.7646 54.5145C33.1957 54.3126 29.824 52.8115 27.2859 50.2943C24.7477 47.7772 23.2186 44.4182 22.9871 40.851C22.7555 37.2839 23.8375 33.7554 26.029 30.9313C28.2204 28.1071 31.3697 26.1827 34.8826 25.5211C38.3954 24.8596 42.029 25.5066 45.0976 27.3401L46.3038 26.1232C46.462 25.9639 46.5832 25.7719 46.659 25.5607C46.7349 25.3494 46.7634 25.1241 46.7426 24.9006L46.1858 18.8431C46.1802 18.7819 46.1916 18.7223 46.189 18.6612C41.2943 16.6876 35.8673 16.469 30.8297 18.0424C25.792 19.6159 21.4543 22.8844 18.5529 27.2929C15.6515 31.7015 14.3654 36.9784 14.9129 42.2276C15.4604 47.4767 17.8079 52.3746 21.5566 56.0895C25.3053 59.8044 30.2243 62.1073 35.4782 62.6073C40.7321 63.1072 45.9971 61.7733 50.3792 58.8321C54.7613 55.8909 57.9903 51.5236 59.518 46.4719C61.0457 41.4203 60.7779 35.9955 58.7601 31.1189C58.6576 31.1185 58.5532 31.1141 58.4475 31.1045Z" fill="#304E21"/>
</svg>
