<svg width="186" height="29" viewBox="0 0 186 29" fill="none" xmlns="http://www.w3.org/2000/svg">
<path d="M13.621 4.28442L16.6515 11.1926L23.8366 12.0884L18.5245 17.2536L19.9346 24.7155L13.621 20.9995L7.3075 24.7155L8.71759 17.2536L3.40552 12.0884L10.5905 11.1926L13.621 4.28442Z" fill="#C76001"/>
<path d="M40.8622 4.28436L43.8927 11.1926L51.0778 12.0883L45.7657 17.2536L47.1758 24.7154L40.8622 20.9995L34.5487 24.7154L35.9588 17.2536L30.6467 12.0883L37.8317 11.1926L40.8622 4.28436Z" fill="#C76001"/>
<path d="M68.1035 4.28442L71.134 11.1926L78.319 12.0884L73.0069 17.2536L74.417 24.7155L68.1035 20.9995L61.7899 24.7155L63.2 17.2536L57.8879 12.0884L65.073 11.1926L68.1035 4.28442Z" fill="#C76001"/>
<path d="M95.3449 4.28436L92.3144 11.1926L85.1294 12.0883L90.4415 17.2536L89.0314 24.7154L95.3449 20.9995V4.28436Z" fill="#C76001"/>
<path d="M95.345 20.9995L101.659 24.7154L100.248 17.2536L105.56 12.0883L98.3755 11.1926L95.345 4.28436V20.9995Z" fill="#E1E2E5"/>
<path d="M122.586 4.28436L125.617 11.1926L132.802 12.0883L127.49 17.2536L128.9 24.7154L122.586 20.9995L116.273 24.7154L117.683 17.2536L112.371 12.0883L119.556 11.1926L122.586 4.28436Z" fill="#E1E2E5"/>
<path d="M147.96 21.5V20.194L152.865 14.8251C153.441 14.1963 153.915 13.6497 154.287 13.1854C154.66 12.7162 154.935 12.276 155.114 11.8649C155.298 11.4489 155.39 11.0136 155.39 10.5589C155.39 10.0366 155.264 9.58432 155.013 9.2022C154.766 8.82009 154.427 8.52504 153.997 8.31705C153.566 8.10906 153.083 8.00507 152.546 8.00507C151.975 8.00507 151.477 8.12357 151.051 8.36058C150.63 8.59275 150.304 8.91924 150.072 9.34005C149.844 9.76086 149.731 10.2542 149.731 10.8201H148.019C148.019 9.9495 148.219 9.18527 148.621 8.52745C149.022 7.86964 149.569 7.35693 150.26 6.98932C150.957 6.62172 151.738 6.43792 152.604 6.43792C153.475 6.43792 154.246 6.62172 154.918 6.98932C155.591 7.35693 156.118 7.85271 156.5 8.47667C156.882 9.10063 157.073 9.79472 157.073 10.5589C157.073 11.1055 156.974 11.64 156.776 12.1624C156.582 12.6799 156.244 13.2579 155.76 13.8964C155.281 14.53 154.616 15.3039 153.765 16.2181L150.427 19.7877V19.9038H157.334V21.5H147.96ZM159.663 18.4528V16.9727L166.193 6.64107H167.267V8.93375H166.541L161.608 16.7405V16.8566H170.401V18.4528H159.663ZM166.658 21.5V18.0029V17.3137V6.64107H168.37V21.5H166.658ZM178.141 21.7031C177.183 21.7031 176.329 21.5387 175.58 21.2098C174.835 20.8809 174.242 20.4238 173.802 19.8385C173.367 19.2484 173.13 18.564 173.091 17.7853H174.92C174.958 18.2641 175.123 18.6777 175.413 19.0259C175.703 19.3693 176.083 19.6354 176.552 19.824C177.021 20.0127 177.541 20.107 178.112 20.107C178.75 20.107 179.316 19.9957 179.81 19.7732C180.303 19.5507 180.69 19.2412 180.97 18.8445C181.251 18.4479 181.391 17.9884 181.391 17.466C181.391 16.9195 181.256 16.4382 180.985 16.0222C180.714 15.6014 180.317 15.2725 179.795 15.0355C179.273 14.7985 178.634 14.68 177.88 14.68H176.69V13.0838H177.88C178.47 13.0838 178.987 12.9774 179.432 12.7646C179.882 12.5517 180.233 12.2519 180.484 11.8649C180.741 11.478 180.869 11.0233 180.869 10.5009C180.869 9.99787 180.758 9.56013 180.535 9.18769C180.313 8.81525 179.998 8.52504 179.592 8.31705C179.19 8.10906 178.716 8.00507 178.17 8.00507C177.657 8.00507 177.174 8.09939 176.719 8.28803C176.269 8.47183 175.901 8.74028 175.616 9.09337C175.331 9.44163 175.176 9.86244 175.152 10.3558H173.41C173.439 9.57706 173.674 8.89506 174.114 8.30979C174.554 7.71969 175.13 7.26019 175.841 6.93128C176.557 6.60237 177.343 6.43792 178.199 6.43792C179.118 6.43792 179.906 6.62414 180.564 6.99658C181.222 7.36418 181.727 7.85029 182.081 8.4549C182.434 9.05951 182.61 9.71249 182.61 10.4138C182.61 11.2506 182.39 11.9641 181.95 12.5542C181.515 13.1443 180.922 13.553 180.172 13.7803V13.8964C181.111 14.0512 181.844 14.4502 182.371 15.0935C182.898 15.732 183.162 16.5228 183.162 17.466C183.162 18.2738 182.942 18.9993 182.501 19.6426C182.066 20.2811 181.471 20.7841 180.717 21.1517C179.962 21.5193 179.103 21.7031 178.141 21.7031Z" fill="#A7ABB4"/>
</svg>
