<svg width="109" height="18" viewBox="0 0 109 18" fill="none" xmlns="http://www.w3.org/2000/svg">
<path d="M8.84131 0.230779L11.2692 5.68903L16.6966 6.56451C16.7655 6.57584 16.8302 6.60821 16.8833 6.65797C16.9364 6.70774 16.976 6.77292 16.9974 6.84619C17.0189 6.91945 17.0214 6.99789 17.0047 7.07266C16.9881 7.14743 16.9528 7.21557 16.903 7.2694L12.9765 11.5171L13.9036 17.5162C13.9155 17.592 13.908 17.6701 13.8819 17.7414C13.8558 17.8128 13.8121 17.8746 13.7559 17.9199C13.6996 17.9652 13.633 17.9922 13.5636 17.9978C13.4941 18.0034 13.4247 17.9873 13.3631 17.9515L8.50837 15.1197L3.65364 17.9523C3.59209 17.9883 3.52264 18.0044 3.45319 17.999C3.38375 17.9935 3.31708 17.9665 3.26078 17.9212C3.20448 17.8759 3.1608 17.8141 3.13471 17.7427C3.10861 17.6713 3.10115 17.5933 3.11316 17.5174L4.04023 11.5171L0.112579 7.2694C0.0627779 7.21557 0.0275565 7.14743 0.010881 7.07266C-0.00579453 6.99789 -0.00326177 6.91945 0.018194 6.84619C0.0396498 6.77292 0.0791765 6.70774 0.132323 6.65797C0.185469 6.60821 0.250123 6.57584 0.319005 6.56451L5.7464 5.68903L8.17542 0.230779C8.20571 0.161612 8.25301 0.103279 8.3119 0.0624633C8.37078 0.0216477 8.43887 0 8.50837 0C8.57786 0 8.64595 0.0216477 8.70484 0.0624633C8.76372 0.103279 8.81102 0.161612 8.84131 0.230779Z" fill="#C76001"/>
<path d="M31.8125 0.230779L34.2404 5.68903L39.6678 6.56451C39.7367 6.57584 39.8013 6.60821 39.8545 6.65797C39.9076 6.70774 39.9472 6.77292 39.9686 6.84619C39.9901 6.91945 39.9926 6.99789 39.9759 7.07266C39.9593 7.14743 39.924 7.21557 39.8742 7.2694L35.9477 11.5171L36.8748 17.5162C36.8867 17.592 36.8792 17.6701 36.8531 17.7414C36.827 17.8128 36.7833 17.8746 36.7271 17.9199C36.6708 17.9652 36.6042 17.9922 36.5348 17.9978C36.4653 18.0034 36.3959 17.9873 36.3343 17.9515L31.4796 15.1197L26.6248 17.9523C26.5633 17.9883 26.4938 18.0044 26.4244 17.999C26.3549 17.9935 26.2883 17.9665 26.232 17.9212C26.1757 17.8759 26.132 17.8141 26.1059 17.7427C26.0798 17.6713 26.0723 17.5933 26.0844 17.5174L27.0114 11.5171L23.0838 7.2694C23.034 7.21557 22.9987 7.14743 22.9821 7.07266C22.9654 6.99789 22.9679 6.91945 22.9894 6.84619C23.0108 6.77292 23.0504 6.70774 23.1035 6.65797C23.1567 6.60821 23.2213 6.57584 23.2902 6.56451L28.7176 5.68903L31.1466 0.230779C31.1769 0.161612 31.2242 0.103279 31.2831 0.0624633C31.342 0.0216477 31.4101 0 31.4796 0C31.5491 0 31.6171 0.0216477 31.676 0.0624633C31.7349 0.103279 31.7822 0.161612 31.8125 0.230779Z" fill="#C76001"/>
<path d="M54.7835 0.230779L57.2114 5.68903L62.6388 6.56451C62.7076 6.57584 62.7723 6.60821 62.8254 6.65797C62.8786 6.70774 62.9181 6.77292 62.9396 6.84619C62.961 6.91945 62.9636 6.99789 62.9469 7.07266C62.9302 7.14743 62.895 7.21557 62.8452 7.2694L58.9186 11.5171L59.8457 17.5162C59.8577 17.592 59.8502 17.6701 59.8241 17.7414C59.7979 17.8128 59.7543 17.8746 59.698 17.9199C59.6418 17.9652 59.5751 17.9922 59.5057 17.9978C59.4363 18.0034 59.3668 17.9873 59.3052 17.9515L54.4505 15.1197L49.5958 17.9523C49.5342 17.9883 49.4648 18.0044 49.3953 17.999C49.3259 17.9935 49.2592 17.9665 49.2029 17.9212C49.1466 17.8759 49.1029 17.8141 49.0768 17.7427C49.0508 17.6713 49.0433 17.5933 49.0553 17.5174L49.9824 11.5171L46.0547 7.2694C46.0049 7.21557 45.9697 7.14743 45.953 7.07266C45.9363 6.99789 45.9389 6.91945 45.9603 6.84619C45.9818 6.77292 46.0213 6.70774 46.0745 6.65797C46.1276 6.60821 46.1923 6.57584 46.2611 6.56451L51.6885 5.68903L54.1176 0.230779C54.1479 0.161612 54.1952 0.103279 54.254 0.0624633C54.3129 0.0216477 54.381 0 54.4505 0C54.52 0 54.5881 0.0216477 54.647 0.0624633C54.7059 0.103279 54.7532 0.161612 54.7835 0.230779Z" fill="#C76001"/>
<path d="M77.7546 0.230779L80.1826 5.68903L85.6099 6.56451C85.6788 6.57584 85.7435 6.60821 85.7966 6.65797C85.8498 6.70774 85.8893 6.77292 85.9108 6.84619C85.9322 6.91945 85.9347 6.99789 85.9181 7.07266C85.9014 7.14743 85.8662 7.21557 85.8164 7.2694L81.8898 11.5171L82.8169 17.5162C82.8289 17.592 82.8213 17.6701 82.7952 17.7414C82.7691 17.8128 82.7255 17.8746 82.6692 17.9199C82.6129 17.9652 82.5463 17.9922 82.4769 17.9978C82.4075 18.0034 82.338 17.9873 82.2764 17.9515L77.4217 15.1197L72.567 17.9523C72.5054 17.9883 72.436 18.0044 72.3665 17.999C72.2971 17.9935 72.2304 17.9665 72.1741 17.9212C72.1178 17.8759 72.0741 17.8141 72.048 17.7427C72.0219 17.6713 72.0145 17.5933 72.0265 17.5174L72.9536 11.5171L69.0259 7.2694C68.9761 7.21557 68.9409 7.14743 68.9242 7.07266C68.9075 6.99789 68.9101 6.91945 68.9315 6.84619C68.953 6.77292 68.9925 6.70774 69.0457 6.65797C69.0988 6.60821 69.1635 6.57584 69.2323 6.56451L74.6597 5.68903L77.0888 0.230779C77.119 0.161612 77.1663 0.103279 77.2252 0.0624633C77.2841 0.0216477 77.3522 0 77.4217 0C77.4912 0 77.5593 0.0216477 77.6182 0.0624633C77.6771 0.103279 77.7244 0.161612 77.7546 0.230779Z" fill="#C76001"/>
<path d="M100.726 0.230779L103.154 5.68903L108.581 6.56451C108.65 6.57584 108.714 6.60821 108.768 6.65797C108.821 6.70774 108.86 6.77292 108.882 6.84619C108.903 6.91945 108.906 6.99789 108.889 7.07266C108.872 7.14743 108.837 7.21557 108.787 7.2694L104.861 11.5171L105.788 17.5162C105.8 17.592 105.792 17.6701 105.766 17.7414C105.74 17.8128 105.696 17.8746 105.64 17.9199C105.584 17.9652 105.517 17.9922 105.448 17.9978C105.378 18.0034 105.309 17.9873 105.247 17.9515L100.393 15.1197L95.5379 17.9523C95.4764 17.9883 95.4069 18.0044 95.3375 17.999C95.268 17.9935 95.2014 17.9665 95.1451 17.9212C95.0888 17.8759 95.0451 17.8141 95.019 17.7427C94.9929 17.6713 94.9854 17.5933 94.9974 17.5174L95.9245 11.5171L91.9969 7.2694C91.9471 7.21557 91.9118 7.14743 91.8952 7.07266C91.8785 6.99789 91.881 6.91945 91.9025 6.84619C91.9239 6.77292 91.9635 6.70774 92.0166 6.65797C92.0697 6.60821 92.1344 6.57584 92.2033 6.56451L97.6307 5.68903L100.06 0.230779C100.09 0.161612 100.137 0.103279 100.196 0.0624633C100.255 0.0216477 100.323 0 100.393 0C100.462 0 100.53 0.0216477 100.589 0.0624633C100.648 0.103279 100.695 0.161612 100.726 0.230779Z" fill="#C76001"/>
</svg>
